<?xml version="1.0" encoding="UTF-8"?>
<svg id="_レイヤー_2" data-name="レイヤー 2" xmlns="http://www.w3.org/2000/svg" viewBox="0 0 165.4 138.79">
  <defs>
    <style>
      .cls-1 {
        fill: none;
        stroke: #00e0e0;
        stroke-miterlimit: 10;
        stroke-width: 2px;
      }

      .cls-2 {
        fill: #00e0e0;
      }
    </style>
  </defs>
  <g id="_レイヤー_12" data-name="レイヤー 12">
    <path class="cls-1" d="M165.27,80.83s-33.78-1.55-43.05,7.29c-9.27,8.83-26.27,24.28-26.27,24.28h-12.58s-6.93,3.43,0,6.21c8.14.19,19.91.52,19.91.52l-4.42,4.56h-28.41s-8.35,3.16,0,7.15c-1.33.84-8.21,4.07-.56,6.94,8.7-.07,21.92,0,21.92,0,0,0,7.11.27,22.77-9.13,13.97-10.24,28.31-22.41,28.31-22.41,0,0,4.29-4.94,22.39-2.65"/>
    <path class="cls-1" d="M100.72,119.06c-12.58-1.13-1.41-9.8-1.41-9.8l-.42.46"/>
    <path class="cls-1" d="M82.75,118.33h-4.75s-7.09,1.99,0,5.36"/>
    <path class="cls-1" d="M114.97,109.26l-18.6,16.7s-.44,1.88-10.19,3.88c-5.19.33-14.38.86-17.04.32"/>
    <path class="cls-1" d="M.13,57.97s33.78,1.55,43.05-7.29c9.27-8.83,26.27-24.28,26.27-24.28h12.58s6.93-3.43,0-6.21c-8.14-.19-19.91-.52-19.91-.52l4.42-4.56h28.41s8.35-3.16,0-7.15c1.33-.84,8.21-4.07.56-6.94-8.7.07-21.92,0-21.92,0,0,0-7.11-.27-22.77,9.13-13.97,10.24-28.31,22.41-28.31,22.41,0,0-4.29,4.94-22.39,2.65"/>
    <path class="cls-1" d="M66.57,29.52c.34-1.66,8.24-9.27-4.45-9.86"/>
    <path class="cls-1" d="M82.65,20.46h4.75s7.09-1.99,0-5.36"/>
    <path class="cls-1" d="M50.42,29.53l18.6-16.7s.44-1.88,10.19-3.88c5.19-.33,14.38-.86,17.04-.32"/>
    <polygon class="cls-2" points="82.7 32.11 49.59 89.45 115.8 89.45 82.7 32.11"/>
  </g>
</svg>