<?xml version="1.0" encoding="UTF-8"?>
<svg id="_レイヤー_2" data-name="レイヤー 2" xmlns="http://www.w3.org/2000/svg" xmlns:xlink="http://www.w3.org/1999/xlink" viewBox="0 0 165.4 138.79">
  <defs>
    <style>
      .cls-1 {
        fill: url(#_名称未設定グラデーション_1231);
      }

      .cls-2 {
        fill: url(#_名称未設定グラデーション_1160);
      }

      .cls-3 {
        fill: none;
        stroke: #00e0e0;
        stroke-miterlimit: 10;
        stroke-width: 2px;
      }
    </style>
    <radialGradient id="_名称未設定グラデーション_1160" data-name="名称未設定グラデーション 1160" cx="82.23" cy="68.15" fx="82.23" fy="68.15" r="27.73" gradientUnits="userSpaceOnUse">
      <stop offset=".28" stop-color="aqua"/>
      <stop offset=".31" stop-color="#0be4fc"/>
      <stop offset=".36" stop-color="#2aa1f6"/>
      <stop offset=".44" stop-color="#5a37ed"/>
      <stop offset=".45" stop-color="#6227ec"/>
      <stop offset=".51" stop-color="#671aea" stop-opacity=".92"/>
      <stop offset=".59" stop-color="#6f08e9" stop-opacity=".8"/>
      <stop offset=".63" stop-color="#6e07e9" stop-opacity=".78"/>
      <stop offset=".69" stop-color="#6c05e9" stop-opacity=".72"/>
      <stop offset=".75" stop-color="#6a03e9" stop-opacity=".61"/>
      <stop offset=".8" stop-color="#6700e9" stop-opacity=".5"/>
      <stop offset=".82" stop-color="#6f18eb" stop-opacity=".54"/>
      <stop offset=".88" stop-color="#8558f0" stop-opacity=".64"/>
      <stop offset=".95" stop-color="#a8bef9" stop-opacity=".8"/>
      <stop offset="1" stop-color="#beffff" stop-opacity=".9"/>
    </radialGradient>
    <radialGradient id="_名称未設定グラデーション_1231" data-name="名称未設定グラデーション 1231" cx="87.19" cy="19.6" fx="87.19" fy="19.6" r="10.35" gradientTransform="translate(56.7 -17.24) rotate(60)" gradientUnits="userSpaceOnUse">
      <stop offset="0" stop-color="#fff"/>
      <stop offset=".34" stop-color="#fff" stop-opacity=".99"/>
      <stop offset=".48" stop-color="#fff" stop-opacity=".96"/>
      <stop offset=".58" stop-color="#fff" stop-opacity=".92"/>
      <stop offset=".66" stop-color="#fff" stop-opacity=".85"/>
      <stop offset=".73" stop-color="#fff" stop-opacity=".76"/>
      <stop offset=".79" stop-color="#fff" stop-opacity=".65"/>
      <stop offset=".85" stop-color="#fff" stop-opacity=".52"/>
      <stop offset=".9" stop-color="#fff" stop-opacity=".37"/>
      <stop offset=".95" stop-color="#fff" stop-opacity=".2"/>
      <stop offset="1" stop-color="#fff" stop-opacity=".01"/>
      <stop offset="1" stop-color="#fff" stop-opacity="0"/>
    </radialGradient>
  </defs>
  <g id="_レイヤー_4" data-name="レイヤー 4">
    <path class="cls-3" d="M165.27,80.83s-33.78-1.55-43.05,7.29c-9.27,8.83-26.27,24.28-26.27,24.28h-12.58s-6.93,3.43,0,6.21c8.14.19,19.91.52,19.91.52l-4.42,4.56h-28.41s-8.35,3.16,0,7.15c-1.33.84-8.21,4.07-.56,6.94,8.7-.07,21.92,0,21.92,0,0,0,7.11.27,22.77-9.13,13.97-10.24,28.31-22.41,28.31-22.41,0,0,4.29-4.94,22.39-2.65"/>
    <path class="cls-3" d="M100.72,119.06c-12.58-1.13-1.41-9.8-1.41-9.8l-.42.46"/>
    <path class="cls-3" d="M82.75,118.33h-4.75s-7.09,1.99,0,5.36"/>
    <path class="cls-3" d="M114.97,109.26l-18.6,16.7s-.44,1.88-10.19,3.88c-5.19.33-14.38.86-17.04.32"/>
    <path class="cls-3" d="M.13,57.97s33.78,1.55,43.05-7.29c9.27-8.83,26.27-24.28,26.27-24.28h12.58s6.93-3.43,0-6.21c-8.14-.19-19.91-.52-19.91-.52l4.42-4.56h28.41s8.35-3.16,0-7.15c1.33-.84,8.21-4.07.56-6.94-8.7.07-21.92,0-21.92,0,0,0-7.11-.27-22.77,9.13-13.97,10.24-28.31,22.41-28.31,22.41,0,0-4.29,4.94-22.39,2.65"/>
    <path class="cls-3" d="M66.57,29.52c.34-1.66,8.24-9.27-4.45-9.86"/>
    <path class="cls-3" d="M82.65,20.46h4.75s7.09-1.99,0-5.36"/>
    <path class="cls-3" d="M50.42,29.53l18.6-16.7s.44-1.88,10.19-3.88c5.19-.33,14.38-.86,17.04-.32"/>
    <polygon class="cls-2" points="82.7 32.11 49.59 89.45 115.8 89.45 82.7 32.11"/>
    <polygon class="cls-1" points="95.06 61.49 70.34 61.49 82.7 82.9 95.06 61.49"/>
  </g>
</svg>